<?xml version="1.0" encoding="UTF-8" standalone="no"?>
<!-- Created with Inkscape (http://www.inkscape.org/) -->

<svg
   xmlns:dc="http://purl.org/dc/elements/1.1/"
   xmlns:cc="http://creativecommons.org/ns#"
   xmlns:rdf="http://www.w3.org/1999/02/22-rdf-syntax-ns#"
   xmlns:svg="http://www.w3.org/2000/svg"
   xmlns="http://www.w3.org/2000/svg"
   xmlns:xlink="http://www.w3.org/1999/xlink"
   xmlns:sodipodi="http://sodipodi.sourceforge.net/DTD/sodipodi-0.dtd"
   xmlns:inkscape="http://www.inkscape.org/namespaces/inkscape"
   width="206.84721mm"
   height="159.87747mm"
   viewBox="0 0 206.84721 159.87747"
   version="1.1"
   id="svg8"
   inkscape:version="0.92.5 (2060ec1f9f, 2020-04-08)"
   sodipodi:docname="diamond.svg">
  <defs
     id="defs2">
    <symbol
       overflow="visible"
       id="n"
       style="overflow:visible">
      <path
         id="path10"
         d="m 29.312,-1.75 c -1.5117,0.78125 -3.0898,1.3711 -4.7344,1.7656 -1.6367,0.40625 -3.3398,0.60938 -5.1094,0.60938 -5.3125,0 -9.5273,-1.4844 -12.641,-4.4531 -3.1055,-2.9688 -4.6562,-7 -4.6562,-12.094 0,-5.094 1.5508,-9.125 4.6562,-12.094 3.1133,-2.9688 7.3281,-4.4531 12.641,-4.4531 1.7695,0 3.4727,0.19922 5.1094,0.59375 1.6445,0.39844 3.2227,0.99219 4.7344,1.7812 v 6.5938 c -1.5312,-1.0391 -3.0391,-1.8008 -4.5156,-2.2812 -1.4805,-0.48828 -3.0391,-0.73438 -4.6719,-0.73438 -2.9375,0 -5.2461,0.94531 -6.9219,2.8281 -1.6797,1.875 -2.5156,4.4648 -2.5156,7.7656 0,3.293 0.83594,5.8828 2.5156,7.7656 1.6758,1.875 3.9844,2.8125 6.9219,2.8125 1.6328,0 3.1914,-0.23828 4.6719,-0.71875 1.4766,-0.48828 2.9844,-1.2539 4.5156,-2.2969 z"
         inkscape:connector-curvature="0" />
    </symbol>
    <symbol
       overflow="visible"
       id="h"
       style="overflow:visible">
      <path
         id="path13"
         d="m 21.453,-17.406 c -0.67969,-0.3125 -1.3516,-0.53906 -2.0156,-0.6875 -0.65625,-0.15625 -1.3203,-0.23438 -1.9844,-0.23438 -1.9688,0 -3.4844,0.63281 -4.5469,1.8906 -1.0547,1.2617 -1.5781,3.0703 -1.5781,5.4219 V 6.2e-4 H 3.6718 v -23.922 h 7.6562 v 3.9219 c 0.97656,-1.5625 2.1016,-2.7031 3.375,-3.4219 1.2812,-0.71875 2.8125,-1.0781 4.5938,-1.0781 0.25,0 0.52344,0.01172 0.82812,0.03125 0.30078,0.02344 0.73438,0.07031 1.2969,0.14062 z"
         inkscape:connector-curvature="0" />
    </symbol>
    <symbol
       overflow="visible"
       id="b"
       style="overflow:visible">
      <path
         id="path16"
         d="m 27.562,-12.031 v 2.1875 H 9.671 c 0.1875,1.793 0.83203,3.1367 1.9375,4.0312 1.1133,0.89844 2.6719,1.3438 4.6719,1.3438 1.6016,0 3.25,-0.23438 4.9375,-0.70312 1.6875,-0.47656 3.4219,-1.2031 5.2031,-2.1719 v 5.8906 c -1.8047,0.6875 -3.6094,1.2031 -5.4219,1.5469 -1.8125,0.35156 -3.6211,0.53125 -5.4219,0.53125 -4.3359,0 -7.7031,-1.0977 -10.109,-3.2969 -2.3984,-2.207 -3.5938,-5.2969 -3.5938,-9.2656 0,-3.9062 1.1758,-6.9727 3.5312,-9.2031 2.3633,-2.2383 5.6094,-3.3594 9.7344,-3.3594 3.7578,0 6.7695,1.1367 9.0312,3.4062 2.2578,2.2617 3.3906,5.2812 3.3906,9.0625 z m -7.8594,-2.5312 c 0,-1.457 -0.42969,-2.6289 -1.2812,-3.5156 -0.84375,-0.89453 -1.9492,-1.3438 -3.3125,-1.3438 -1.4922,0 -2.6992,0.41797 -3.625,1.25 -0.91797,0.83594 -1.4922,2.0391 -1.7188,3.6094 z"
         inkscape:connector-curvature="0" />
    </symbol>
    <symbol
       overflow="visible"
       id="a"
       style="overflow:visible">
      <path
         id="path19"
         d="m 14.391,-10.766 c -1.5938,0 -2.793,0.27344 -3.5938,0.8125 -0.80469,0.54297 -1.2031,1.3398 -1.2031,2.3906 0,0.96875 0.32031,1.7305 0.96875,2.2812 0.64453,0.54297 1.5469,0.8125 2.7031,0.8125 1.4375,0 2.6445,-0.51562 3.625,-1.5469 0.98828,-1.0312 1.4844,-2.3203 1.4844,-3.875 v -0.875 z m 11.688,-2.8906 V -6e-4 h -7.7031 v -3.5469 c -1.0312,1.4492 -2.1875,2.5078 -3.4688,3.1719 -1.2813,0.6641 -2.8398,1 -4.6719,1 -2.4805,0 -4.4961,-0.72266 -6.0469,-2.1719 -1.543,-1.4453 -2.3125,-3.3203 -2.3125,-5.625 0,-2.8125 0.96094,-4.8672 2.8906,-6.1719 1.9375,-1.3125 4.9688,-1.9688 9.0938,-1.9688 h 4.5156 v -0.60938 c 0,-1.207 -0.48047,-2.0938 -1.4375,-2.6562 -0.94922,-0.5625 -2.4375,-0.84375 -4.4688,-0.84375 -1.6367,0 -3.1562,0.16797 -4.5625,0.5 -1.4062,0.32422 -2.7188,0.8125 -3.9375,1.4688 v -5.8281 c 1.6445,-0.40625 3.2891,-0.70703 4.9375,-0.90625 1.6562,-0.20703 3.3047,-0.3125 4.9531,-0.3125 4.3203,0 7.4375,0.85547 9.3438,2.5625 1.9141,1.6992 2.875,4.4609 2.875,8.2812 z"
         inkscape:connector-curvature="0" />
    </symbol>
    <symbol
       overflow="visible"
       id="g"
       style="overflow:visible">
      <path
         id="path22"
         d="m 12.031,-30.719 v 6.7969 h 7.875 v 5.4688 h -7.875 v 10.141 c 0,1.1172 0.21875,1.8711 0.65625,2.2656 0.4375,0.38672 1.3125,0.57812 2.625,0.57812 h 3.9375 v 5.4688 h -6.5625 c -3.0234,0 -5.1641,-0.62891 -6.4219,-1.8906 -1.2617,-1.2578 -1.8906,-3.3984 -1.8906,-6.4219 v -10.141 h -3.7969 v -5.4688 h 3.7969 v -6.7969 z"
         inkscape:connector-curvature="0" />
    </symbol>
    <symbol
       overflow="visible"
       id="f"
       style="overflow:visible">
      <path
         id="path25"
         d="m 19.953,-20.422 v -12.812 h 7.6875 V 0 H 19.953 v -3.4531 c -1.0547,1.4062 -2.2148,2.4375 -3.4844,3.0938 -1.2734,0.65625 -2.7422,0.98438 -4.4062,0.98438 -2.9492,0 -5.3711,-1.1719 -7.2656,-3.5156 -1.8867,-2.3438 -2.8281,-5.3594 -2.8281,-9.0469 0,-3.6875 0.94141,-6.7031 2.8281,-9.0469 1.8945,-2.3438 4.3164,-3.5156 7.2656,-3.5156 1.6562,0 3.1172,0.33594 4.3906,1 1.2812,0.65625 2.4453,1.6836 3.5,3.0781 z m -5.0469,15.484 c 1.6445,0 2.8945,-0.59766 3.75,-1.7969 0.86328,-1.1953 1.2969,-2.9297 1.2969,-5.2031 0,-2.2812 -0.43359,-4.0195 -1.2969,-5.2188 -0.85547,-1.1953 -2.1055,-1.7969 -3.75,-1.7969 -1.625,0 -2.8711,0.60156 -3.7344,1.7969 -0.85547,1.1992 -1.2812,2.9375 -1.2812,5.2188 0,2.2734 0.42578,4.0078 1.2812,5.2031 0.86328,1.1992 2.1094,1.7969 3.7344,1.7969 z"
         inkscape:connector-curvature="0" />
    </symbol>
    <symbol
       overflow="visible"
       id="e"
       style="overflow:visible">
      <path
         id="path28"
         d="m 16.406,-4.9375 c 1.6328,0 2.8828,-0.59766 3.75,-1.7969 0.86328,-1.1953 1.2969,-2.9297 1.2969,-5.2031 0,-2.2812 -0.43359,-4.0195 -1.2969,-5.2188 -0.86719,-1.1953 -2.1172,-1.7969 -3.75,-1.7969 -1.6367,0 -2.8906,0.60547 -3.7656,1.8125 -0.875,1.1992 -1.3125,2.9336 -1.3125,5.2031 0,2.2617 0.4375,3.9961 1.3125,5.2031 0.875,1.1992 2.1289,1.7969 3.7656,1.7969 z m -5.0781,-15.484 c 1.0508,-1.3945 2.2188,-2.4219 3.5,-3.0781 1.2812,-0.66406 2.7539,-1 4.4219,-1 2.9453,0 5.3672,1.1719 7.2656,3.5156 1.8945,2.3438 2.8438,5.3594 2.8438,9.0469 0,3.6875 -0.94922,6.7031 -2.8438,9.0469 -1.8984,2.3438 -4.3203,3.5156 -7.2656,3.5156 -1.668,0 -3.1406,-0.33594 -4.4219,-1 -1.2813,-0.66406 -2.4492,-1.6914 -3.5,-3.0781 V 4e-4 H 3.6717 v -33.234 h 7.6562 z"
         inkscape:connector-curvature="0" />
    </symbol>
    <symbol
       overflow="visible"
       id="d"
       style="overflow:visible">
      <path
         id="path31"
         d="m 0.53125,-23.922 h 7.6562 l 6.4219,16.234 5.4688,-16.234 h 7.6562 l -10.062,26.188 c -1.0117,2.6641 -2.1953,4.5234 -3.5469,5.5781 -1.3438,1.0625 -3.1211,1.5938 -5.3281,1.5938 H 4.37545 V 4.4223 h 2.3906 c 1.3008,0 2.2422,-0.21094 2.8281,-0.625 0.59375,-0.40625 1.0547,-1.1484 1.3906,-2.2188 l 0.20312,-0.65625 z"
         inkscape:connector-curvature="0" />
    </symbol>
    <symbol
       overflow="visible"
       id="c"
       style="overflow:visible">
      <path
         id="path34"
         d="m 15.703,-17.75 c 1.7188,0 2.9531,-0.31641 3.7031,-0.95312 0.75,-0.64453 1.125,-1.7031 1.125,-3.1719 0,-1.4453 -0.375,-2.4844 -1.125,-3.1094 -0.75,-0.63281 -1.9844,-0.95312 -3.7031,-0.95312 h -3.4688 v 8.1875 z m -3.4688,5.6875 V -5e-4 H 4.0154 v -31.891 h 12.562 c 4.1953,0 7.2734,0.70312 9.2344,2.1094 1.957,1.4062 2.9375,3.6367 2.9375,6.6875 0,2.1055 -0.51172,3.8359 -1.5312,5.1875 -1.0117,1.3555 -2.543,2.3555 -4.5938,3 1.125,0.25 2.1289,0.82812 3.0156,1.7344 0.89453,0.90625 1.7969,2.2773 2.7031,4.1094 l 4.4688,9.0625 h -8.7656 l -3.875,-7.9219 c -0.79297,-1.5938 -1.5898,-2.6797 -2.3906,-3.2656 -0.80469,-0.58203 -1.875,-0.875 -3.2188,-0.875 z"
         inkscape:connector-curvature="0" />
    </symbol>
    <symbol
       overflow="visible"
       id="m"
       style="overflow:visible">
      <path
         id="path37"
         d="M 27.734,-14.562 V 0 h -7.7031 v -11.156 c 0,-2.0625 -0.04687,-3.4844 -0.14062,-4.2656 -0.08594,-0.78125 -0.24219,-1.3594 -0.46875,-1.7344 -0.30469,-0.5 -0.71094,-0.88281 -1.2188,-1.1562 -0.51172,-0.28125 -1.0938,-0.42188 -1.75,-0.42188 -1.5938,0 -2.8516,0.61719 -3.7656,1.8438 -0.90625,1.2305 -1.3594,2.9375 -1.3594,5.125 v 11.766 h -7.6562 v -23.922 h 7.6562 v 3.5 c 1.1445,-1.3945 2.3633,-2.4219 3.6562,-3.0781 1.3008,-0.66406 2.7383,-1 4.3125,-1 2.7578,0 4.8516,0.85156 6.2812,2.5469 1.4375,1.6875 2.1562,4.1523 2.1562,7.3906 z"
         inkscape:connector-curvature="0" />
    </symbol>
    <symbol
       overflow="visible"
       id="l"
       style="overflow:visible">
      <path
         id="path40"
         d="m 3.6719,-33.234 h 7.6562 v 18.094 l 8.7969,-8.7812 h 8.8906 l -11.688,10.969 12.594,12.953 H 20.656 L 11.3279,-9.968 V 8e-4 H 3.6717 Z"
         inkscape:connector-curvature="0" />
    </symbol>
    <symbol
       overflow="visible"
       id="k"
       style="overflow:visible">
      <path
         id="path43"
         d="m 26.219,-30.891 v 6.75 c -1.7617,-0.78125 -3.4766,-1.3672 -5.1406,-1.7656 -1.668,-0.40625 -3.2422,-0.60938 -4.7188,-0.60938 -1.9609,0 -3.4141,0.27344 -4.3594,0.8125 -0.9375,0.54297 -1.4062,1.3867 -1.4062,2.5312 0,0.85547 0.31641,1.5234 0.95312,2 0.63281,0.46875 1.7852,0.875 3.4531,1.2188 l 3.5,0.70312 c 3.5391,0.71875 6.0625,1.8047 7.5625,3.25 1.5,1.4492 2.25,3.5117 2.25,6.1875 0,3.5234 -1.0469,6.1406 -3.1406,7.8594 -2.0859,1.7188 -5.2734,2.5781 -9.5625,2.5781 -2.0234,0 -4.0547,-0.19531 -6.0938,-0.57812 -2.0312,-0.38281 -4.0625,-0.95703 -6.0938,-1.7188 v -6.9375 c 2.0312,1.0859 3.9922,1.9023 5.8906,2.4531 1.9062,0.54297 3.7422,0.8125 5.5156,0.8125 1.7891,0 3.1602,-0.29688 4.1094,-0.89062 0.95703,-0.60156 1.4375,-1.457 1.4375,-2.5625 0,-1 -0.32422,-1.7695 -0.96875,-2.3125 -0.64844,-0.53906 -1.9375,-1.0234 -3.875,-1.4531 l -3.1875,-0.70312 c -3.1875,-0.6875 -5.5234,-1.7734 -7,-3.2656 -1.4688,-1.5 -2.2031,-3.5156 -2.2031,-6.0469 0,-3.1758 1.0234,-5.6172 3.0781,-7.3281 2.0508,-1.707 5,-2.5625 8.8438,-2.5625 1.75,0 3.5508,0.13281 5.4062,0.39062 1.8516,0.26172 3.7695,0.65625 5.75,1.1875 z"
         inkscape:connector-curvature="0" />
    </symbol>
    <symbol
       overflow="visible"
       id="j"
       style="overflow:visible">
      <path
         id="path46"
         d="m 15.062,-19.031 c -1.6992,0 -2.9961,0.60938 -3.8906,1.8281 -0.88672,1.2188 -1.3281,2.9766 -1.3281,5.2656 0,2.293 0.44141,4.0469 1.3281,5.2656 0.89453,1.2188 2.1914,1.8281 3.8906,1.8281 1.6641,0 2.9375,-0.60938 3.8125,-1.8281 0.88281,-1.2188 1.3281,-2.9727 1.3281,-5.2656 0,-2.2891 -0.44531,-4.0469 -1.3281,-5.2656 -0.875,-1.2188 -2.1484,-1.8281 -3.8125,-1.8281 z m 0,-5.4688 c 4.1133,0 7.3281,1.1094 9.6406,3.3281 2.3125,2.2187 3.4688,5.2969 3.4688,9.2344 0,3.9297 -1.1562,7.0078 -3.4688,9.2344 -2.3125,2.2188 -5.5273,3.3281 -9.6406,3.3281 -4.1367,0 -7.3711,-1.1094 -9.7031,-3.3281 -2.3242,-2.2266 -3.4844,-5.3047 -3.4844,-9.2344 0,-3.9375 1.1602,-7.0156 3.4844,-9.2344 2.332,-2.2188 5.5664,-3.3281 9.7031,-3.3281 z"
         inkscape:connector-curvature="0" />
    </symbol>
    <symbol
       overflow="visible"
       id="i"
       style="overflow:visible">
      <path
         id="path49"
         d="m 3.6719,-33.234 h 7.6562 V 0 H 3.6719 Z"
         inkscape:connector-curvature="0" />
    </symbol>
    <clipPath
       clipPathUnits="userSpaceOnUse"
       id="clipPath186">
      <rect
         style="fill:#800080;stroke-width:0.26458332"
         id="rect188"
         width="250.22023"
         height="187.47618"
         x="3.0238097"
         y="59.630951"
         ry="0.51792979" />
    </clipPath>
    <clipPath
       clipPathUnits="userSpaceOnUse"
       id="clipPath192">
      <rect
         style="fill:none;stroke-width:0.75270611"
         id="rect194"
         width="690.78253"
         height="549.60803"
         x="3.4220226"
         y="-1.6722765"
         ry="1.5183709" />
    </clipPath>
    <clipPath
       clipPathUnits="userSpaceOnUse"
       id="clipPath196">
      <rect
         style="fill:none;stroke-width:0.26458332"
         id="rect198"
         width="250.22021"
         height="187.47618"
         x="3.0238106"
         y="59.630951"
         ry="0.51792979" />
    </clipPath>
    <clipPath
       clipPathUnits="userSpaceOnUse"
       id="clipPath202">
      <rect
         style="fill:none;stroke-width:0.26458332"
         id="rect204"
         width="203.3512"
         height="156.48213"
         x="26.08954"
         y="72.879448"
         ry="0.51792979" />
    </clipPath>
    <clipPath
       clipPathUnits="userSpaceOnUse"
       id="clipPath265">
      <rect
         style="fill:none;stroke-width:0.26458332"
         id="rect267"
         width="206.37502"
         height="158.75"
         x="20.158741"
         y="94.742249"
         ry="0.51792979" />
    </clipPath>
  </defs>
  <sodipodi:namedview
     id="base"
     pagecolor="#ffffff"
     bordercolor="#666666"
     borderopacity="1.0"
     inkscape:pageopacity="0.0"
     inkscape:pageshadow="2"
     inkscape:zoom="0.35"
     inkscape:cx="406.66662"
     inkscape:cy="420.6809"
     inkscape:document-units="mm"
     inkscape:current-layer="layer1"
     showgrid="false"
     inkscape:window-width="1848"
     inkscape:window-height="1016"
     inkscape:window-x="72"
     inkscape:window-y="278"
     inkscape:window-maximized="1"
     fit-margin-top="0"
     fit-margin-left="0"
     fit-margin-right="0"
     fit-margin-bottom="0" />
  <metadata
     id="metadata5">
    <rdf:RDF>
      <cc:Work
         rdf:about="">
        <dc:format>image/svg+xml</dc:format>
        <dc:type
           rdf:resource="http://purl.org/dc/dcmitype/StillImage" />
        <dc:title></dc:title>
      </cc:Work>
    </rdf:RDF>
  </metadata>
  <g
     inkscape:groupmode="layer"
     id="layer2"
     inkscape:label="Layer 2"
     transform="translate(1.7638773,-156.35899)" />
  <g
     inkscape:label="Layer 1"
     inkscape:groupmode="layer"
     id="layer1"
     transform="translate(1.7638773,-156.35899)">
    <g
       id="g102"
       transform="matrix(0.36222717,0,0,0.34110888,-25.016558,140.85246)"
       clip-path="url(#clipPath192)">
      <path
         id="path54"
         d="M 630,210.09 521.68,58.98 467.606,210.09 Z"
         inkscape:connector-curvature="0" />
      <path
         id="path56"
         d="M 512.23,52.852 H 356.21 l 102.2,150.76 z"
         inkscape:connector-curvature="0" />
      <path
         id="path58"
         d="m 336.09,52.852 h -148.4 l 53.637,150.41 z"
         inkscape:connector-curvature="0" />
      <path
         id="path60"
         d="M 449.66,210.09 346.06,57.4 249.896,210.09 Z"
         inkscape:connector-curvature="0" />
      <path
         id="path62"
         d="M 178.24,59.062 70,210.082 h 162.31 z"
         inkscape:connector-curvature="0" />
      <path
         id="path64"
         d="M 71.926,220.94 341.686,506.63 236.166,220.94 Z"
         inkscape:connector-curvature="0" />
      <path
         id="path66"
         d="M 247.71,220.94 350,507.15 452.2,220.94 Z"
         inkscape:connector-curvature="0" />
      <path
         id="path68"
         d="M 358.23,506.62 628.08,220.93 H 463.76 Z"
         inkscape:connector-curvature="0" />
      <use
         id="use70"
         xlink:href="#n"
         y="691.25"
         x="70"
         width="100%"
         height="100%" />
      <use
         id="use72"
         xlink:href="#h"
         y="691.25"
         x="102.10938"
         width="100%"
         height="100%" />
      <use
         id="use74"
         xlink:href="#b"
         y="691.25"
         x="123.68359"
         width="100%"
         height="100%" />
      <use
         id="use76"
         xlink:href="#a"
         y="691.25"
         x="153.35547"
         width="100%"
         height="100%" />
      <use
         id="use78"
         xlink:href="#g"
         y="691.25"
         x="182.87891"
         width="100%"
         height="100%" />
      <use
         id="use80"
         xlink:href="#b"
         y="691.25"
         x="203.79297"
         width="100%"
         height="100%" />
      <use
         id="use82"
         xlink:href="#f"
         y="691.25"
         x="233.46484"
         width="100%"
         height="100%" />
      <use
         id="use84"
         xlink:href="#e"
         y="691.25"
         x="280.01172"
         width="100%"
         height="100%" />
      <use
         id="use86"
         xlink:href="#d"
         y="691.25"
         x="311.32812"
         width="100%"
         height="100%" />
      <use
         id="use88"
         xlink:href="#c"
         y="691.25"
         x="355.07812"
         width="100%"
         height="100%" />
      <use
         id="use90"
         xlink:href="#a"
         y="691.25"
         x="388.76953"
         width="100%"
         height="100%" />
      <use
         id="use92"
         xlink:href="#m"
         y="691.25"
         x="418.28906"
         width="100%"
         height="100%" />
      <use
         id="use94"
         xlink:href="#l"
         y="691.25"
         x="449.4375"
         width="100%"
         height="100%" />
      <use
         id="use96"
         xlink:href="#k"
         y="691.25"
         x="493.76562"
         width="100%"
         height="100%" />
      <use
         id="use98"
         xlink:href="#j"
         y="691.25"
         x="525.27344"
         width="100%"
         height="100%" />
      <use
         id="use100"
         xlink:href="#i"
         y="691.25"
         x="555.33203"
         width="100%"
         height="100%" />
    </g>
    <rect
       style="fill:none;stroke-width:0.26458332"
       id="rect249"
       width="266.09525"
       height="247.19643"
       x="-2.5198298"
       y="67.527954"
       ry="0.51792979" />
  </g>
</svg>
